<svg width="24" height="24" viewBox="0 0 24 24" fill="none" xmlns="http://www.w3.org/2000/svg">
<g clip-path="url(#clip0_8452_61976)">
<path d="M20.5246 11.9999C20.5246 8.5067 17.6928 5.6749 14.1996 5.6749C10.9201 5.6749 8.22265 8.17147 7.90576 11.3672C7.88518 11.5749 7.87461 11.7863 7.87461 11.9999C7.87461 12.4555 7.50524 12.8249 7.04961 12.8249C6.59397 12.8249 6.22461 12.4555 6.22461 11.9999C6.22461 11.7319 6.23735 11.4667 6.26328 11.205C6.6628 7.17335 10.0633 4.0249 14.1996 4.0249C18.6041 4.0249 22.1746 7.59543 22.1746 11.9999C22.1746 16.4044 18.6041 19.9749 14.1996 19.9749H12.7032C12.2476 19.9748 11.8782 19.6055 11.8782 19.1499C11.8782 18.6943 12.2476 18.325 12.7032 18.3249H14.1996C17.6928 18.3249 20.5246 15.4931 20.5246 11.9999Z" fill="#434956"/>
<path d="M1.82422 16.4936C1.82422 14.6641 3.33716 13.3102 5.12529 13.0594C5.62237 11.9594 6.68048 11.1507 7.93115 10.8089C9.39336 10.4098 11.0235 10.6652 12.2227 11.5275L12.4429 11.6962C13.2363 12.3478 13.7318 13.2429 13.7985 14.2066C15.3385 14.3166 16.6742 15.4928 16.6742 17.0855C16.6742 18.7596 15.1996 19.9752 13.5622 19.9752H5.72256C5.69718 19.9752 5.67215 19.9731 5.64736 19.9709C3.64166 19.9356 1.82443 18.4995 1.82422 16.4936ZM3.47422 16.4936C3.47445 17.3946 4.36333 18.3229 5.72256 18.323C5.73654 18.323 5.75065 18.3245 5.76445 18.3252H13.5622C14.4512 18.3252 15.0241 17.6935 15.0242 17.0855C15.0242 16.4782 14.4515 15.846 13.5633 15.8459H12.9091C12.6557 15.8457 12.4165 15.7295 12.2603 15.5301C12.1039 15.3302 12.0477 15.0685 12.1088 14.8222C12.2737 14.1562 12.0115 13.4073 11.2602 12.8682V12.8671C10.4954 12.317 9.38523 12.1229 8.36621 12.4009C7.34543 12.6798 6.69599 13.3468 6.52393 14.038C6.43249 14.4058 6.10153 14.6642 5.72256 14.6642C4.36303 14.6644 3.47422 15.5933 3.47422 16.4936Z" fill="#434956"/>
</g>
<defs>
<clipPath id="clip0_8452_61976">
<rect width="24" height="24" fill="white"/>
</clipPath>
</defs>
</svg>
