<svg width="24" height="24" viewBox="0 0 24 24" fill="none" xmlns="http://www.w3.org/2000/svg">
<path d="M3.47461 18.6343V6.53428C3.47461 4.86362 4.82895 3.50928 6.49961 3.50928H8.14961V5.15928H6.49961C5.74022 5.15928 5.12461 5.77489 5.12461 6.53428V18.6343C5.12461 19.3937 5.74022 20.0093 6.49961 20.0093H17.4996C18.259 20.0093 18.8746 19.3937 18.8746 18.6343V6.53428C18.8746 5.77489 18.259 5.15928 17.4996 5.15928H15.8496V3.50928H17.4996C19.1703 3.50928 20.5246 4.86362 20.5246 6.53428V18.6343C20.5246 20.3049 19.1703 21.6593 17.4996 21.6593H6.49961C4.82895 21.6593 3.47461 20.3049 3.47461 18.6343Z" fill="#434956"/>
<path d="M14.7488 10.075C15.2045 10.075 15.5738 10.4443 15.5738 10.9C15.5738 11.3556 15.2045 11.725 14.7488 11.725H9.24883C8.79319 11.725 8.42383 11.3556 8.42383 10.9C8.42383 10.4443 8.79319 10.075 9.24883 10.075H14.7488Z" fill="#434956"/>
<path d="M14.7488 13.375C15.2045 13.375 15.5738 13.7444 15.5738 14.2C15.5738 14.6556 15.2045 15.025 14.7488 15.025H9.24883C8.79319 15.025 8.42383 14.6556 8.42383 14.2C8.42383 13.7444 8.79319 13.375 9.24883 13.375H14.7488Z" fill="#434956"/>
<path d="M14.3707 2.34058C15.6601 2.34077 16.5846 3.58379 16.2141 4.8188L16.0497 5.3688C15.8055 6.18304 15.0554 6.74058 14.2053 6.74058H9.79242C8.94232 6.74058 8.19226 6.18304 7.94798 5.3688L7.78363 4.8188C7.41313 3.58379 8.33766 2.34077 9.62699 2.34058H14.3707ZM9.62699 3.99058C9.44294 3.99077 9.3109 4.16872 9.3638 4.34507L9.52923 4.89507C9.56429 5.0111 9.67116 5.09058 9.79242 5.09058H14.2053C14.3266 5.09058 14.4334 5.0111 14.4685 4.89507L14.6339 4.34507C14.6868 4.16872 14.5548 3.99077 14.3707 3.99058H9.62699Z" fill="#434956"/>
</svg>
