<svg width="40" height="40" viewBox="0 0 40 40" fill="none" xmlns="http://www.w3.org/2000/svg">
<path d="M11.7144 13.2063H13.0163C13.825 13.2063 14.6258 13.3833 15.373 13.7271C16.1202 14.071 16.7991 14.575 17.3709 15.2104C17.9428 15.8457 18.3964 16.6 18.7059 17.4302C19.0154 18.2603 19.1747 19.15 19.1747 20.0486V29.619" stroke="#FFD6A5" stroke-width="2" stroke-miterlimit="10"/>
<path d="M30.3651 13.2063H29.0632C27.4299 13.2063 25.8634 13.9272 24.7085 15.2104C23.5536 16.4935 22.9048 18.2339 22.9048 20.0486V29.619" stroke="#FFD6A5" stroke-width="2" stroke-miterlimit="10"/>
<path d="M26.8043 25.6725C25.5814 23.8671 22.6526 23.5015 20.6674 23.5015C18.6822 23.5015 15.7526 23.8671 14.5297 25.6725C13.1405 27.7241 14.4652 30.3576 16.3234 31.6118C17.6313 32.4959 18.8121 32.9799 19.8977 33.1505L20.1415 35.7476C20.1527 35.867 20.2081 35.9779 20.2969 36.0587C20.3857 36.1394 20.5015 36.1841 20.6217 36.1841H21.0888C21.2089 36.1841 21.3247 36.1394 21.4135 36.0587C21.5024 35.9779 21.5578 35.867 21.569 35.7476L21.8203 33.0778C22.7993 32.8614 23.855 32.3933 25.0134 31.6118C26.8678 30.3576 28.1934 27.725 26.8043 25.6725Z" fill="#E96F6F"/>
<path d="M14.3474 13.2072C14.3433 12.6132 14.5024 12.029 14.8082 11.5155C15.1942 10.8675 15.4884 10.0612 15.438 9.14143C15.3076 6.90365 13.0841 5 10.965 5C6.72588 5 5.0261 9.0447 5 13.1299C5 13.1554 5 13.1809 5 13.2063C5 13.2318 5 13.2573 5 13.2828C5.0243 17.3698 6.72588 21.4127 10.965 21.4127C13.0841 21.4127 15.3076 19.509 15.438 17.2713C15.492 16.3524 15.1978 15.5461 14.8082 14.8972C14.5027 14.3843 14.3436 13.8007 14.3474 13.2072Z" fill="#FF8D8D"/>
<path d="M27.6536 13.2072C27.6575 12.6132 27.5097 12.029 27.2258 11.5155C26.8674 10.8675 26.5942 10.0612 26.641 9.14143C26.7621 6.90365 28.8268 5 30.7945 5C34.7308 5 36.3092 9.0447 36.3334 13.1299C36.3334 13.1554 36.3334 13.1809 36.3334 13.2063C36.3334 13.2318 36.3334 13.2573 36.3334 13.2828C36.3109 17.3698 34.7308 21.4127 30.7945 21.4127C28.8268 21.4127 26.7621 19.509 26.641 17.2713C26.5908 16.3524 26.864 15.5461 27.2258 14.8972C27.5094 14.3843 27.6572 13.8007 27.6536 13.2072Z" fill="#FF8D8D"/>
</svg>
